<svg width="780" height="780" viewBox="0 0 780 780" fill="none" xmlns="http://www.w3.org/2000/svg">
<path d="M8.00001 389.379L55.5742 341.804L56.2764 341.87L215.105 356.714L214.825 359.7L56.6992 344.923L12.2422 389.379L56.6992 433.836L214.825 419.058L215.104 422.044L55.5742 436.953L8.00001 389.379Z" fill="url(#paint0_linear_2_322)" style=""/>
<path d="M389.379 771.5L341.804 723.926L341.87 723.224L356.714 564.396L359.7 564.675L344.923 722.801L389.379 767.258L433.836 722.801L419.058 564.675L422.044 564.396L436.953 723.926L389.379 771.5Z" fill="url(#paint1_linear_2_322)" style=""/>
<path d="M772.26 388.619L724.406 342.286L723.911 341.806L564.395 356.714L564.675 359.7L722.815 344.921L767.982 388.655L722.801 433.836L564.675 419.058L564.396 422.044L723.224 436.888L723.926 436.954L772.26 388.619Z" fill="url(#paint2_linear_2_322)" style=""/>
<path d="M389.379 8.00001L341.804 55.5742L341.87 56.2764L356.714 215.105L359.7 214.825L344.923 56.6992L389.379 12.2422L433.836 56.6992L419.058 214.825L422.044 215.104L436.953 55.5742L389.379 8.00001Z" fill="url(#paint3_linear_2_322)" style=""/>
<path d="M330.011 244.487L327.029 244.818L312.378 112.636C215.886 139.499 139.907 215.607 113.228 312.176H244.652V315.176H141.304L259.645 327.027L259.347 330.012L109.356 314.992L109.815 313.286C136.449 214.226 214.327 136.166 313.282 109.275L314.974 108.815L330.011 244.487Z" fill="url(#paint4_linear_2_322)" style=""/>
<path d="M330.008 549.877L327.031 549.506L315.176 644.619L315.176 534.847L312.176 534.847L312.176 666.808C215.779 639.896 139.889 563.825 113.228 467.324L244.652 467.324L244.652 464.324L141.304 464.324L259.645 452.473L259.347 449.488L109.356 464.508L109.815 466.214C136.449 565.274 214.327 643.334 313.282 670.225L314.95 670.678L330.008 549.877Z" fill="url(#paint5_linear_2_322)" style=""/>
<path d="M448.747 244.487L451.729 244.818L466.38 112.636C562.872 139.499 638.85 215.607 665.529 312.176H534.105V315.176H643.442L548.763 327.031L549.136 330.008L669.39 314.95L668.942 313.286C642.308 214.226 564.43 136.166 465.476 109.275L463.784 108.815L448.747 244.487Z" fill="url(#paint6_linear_2_322)" style=""/>
<path d="M448.75 549.877L451.727 549.506L463.582 644.619L463.582 534.847L466.582 534.847L466.582 666.808C562.978 639.896 638.869 563.825 665.529 467.324L534.105 467.324L534.105 464.324L643.442 464.324L548.763 452.469L549.136 449.492L669.39 464.55L668.942 466.214C642.308 565.274 564.43 643.334 465.476 670.225L463.808 670.678L448.75 549.877Z" fill="url(#paint7_linear_2_322)" style=""/>
<path d="M315.176 244.653H312.176V112.692C215.779 139.604 139.889 215.675 113.228 312.176H244.652V315.176H109.307L109.815 313.286C136.449 214.226 214.327 136.166 313.282 109.275L315.176 108.76V244.653Z" fill="url(#paint8_linear_2_322)" style=""/>
<path d="M463.582 244.653H466.582V112.692C562.978 139.604 638.869 215.675 665.529 312.176H534.105V315.176H669.451L668.942 313.286C642.308 214.226 564.43 136.166 465.476 109.275L463.582 108.76V244.653Z" fill="url(#paint9_linear_2_322)" style=""/>
<path d="M497.938 469.643L452.784 514.796H450.687L497.938 467.545V469.643ZM497.938 484.486L467.628 514.796H465.53L497.938 482.389V484.486ZM497.938 499.33L482.472 514.796H480.374L497.938 497.232V499.33ZM337.773 466.525L289.503 514.796H287.405L337.773 464.428V466.525ZM337.773 481.369L304.347 514.796H302.249L337.773 479.271V481.369ZM337.773 496.213L319.19 514.796H317.093L337.773 494.115V496.213ZM337.773 511.057L334.034 514.796H331.937L337.773 508.959V511.057ZM497.938 454.799L438.771 513.965L437.979 512.658L497.938 452.701V454.799ZM337.773 451.682L281.233 508.222V506.124L337.773 449.584V451.682ZM497.938 439.955L433.17 504.722L432.378 503.416L497.938 437.857V439.955ZM497.938 425.111L427.568 495.479L426.777 494.173L497.938 423.014V425.111ZM337.773 436.838L281.233 493.378V491.28L337.773 434.74V436.838ZM497.938 410.268L421.968 486.236L421.176 484.931L497.938 408.17V410.268ZM337.773 421.994L281.233 478.534V476.437L337.773 419.896V421.994ZM497.938 395.424L416.366 476.994L415.575 475.688L497.938 393.326V395.424ZM497.938 380.58L410.766 467.751L409.974 466.445L497.938 378.482V380.58ZM337.773 407.15L281.233 463.69V461.593L337.773 405.053V407.15ZM497.938 365.736L405.165 458.508L404.373 457.202L441.387 420.188L441.977 421.206V419.6L497.938 363.639V365.736ZM436.709 412.12L399.563 449.266L398.772 447.959L435.939 410.792L436.709 412.12ZM337.773 392.307L281.233 448.847V446.749L337.773 390.209V392.307ZM431.263 402.723L393.963 440.022L393.171 438.717L430.493 401.395L431.263 402.723ZM337.773 377.463L281.233 434.003V431.905L337.773 375.365V377.463ZM425.815 393.326L388.361 430.78L387.57 429.474L425.046 391.998L425.815 393.326ZM420.368 383.93L382.761 421.537L381.969 420.231L419.599 382.602L420.368 383.93ZM337.773 362.619L281.233 419.159V417.062L337.773 360.521V362.619ZM414.922 374.532L377.16 412.294L376.368 410.988L414.152 373.204L414.922 374.532ZM497.938 350.893L441.977 406.854V404.756L497.938 348.795V350.893ZM376.793 308.755L337.953 347.595L337.773 347.299V347.775L281.233 404.315V402.218L376.023 307.427L376.793 308.755ZM409.475 365.136L371.559 403.052L370.768 401.745L408.705 363.808L409.475 365.136ZM404.027 355.739L365.958 393.809L365.166 392.503L403.258 354.411L404.027 355.739ZM497.938 336.049L441.977 392.01V389.912L497.938 333.951V336.049ZM371.347 299.357L281.233 389.472V387.374L370.576 298.03L371.347 299.357ZM398.581 346.342L360.356 384.566L359.565 383.26L397.812 345.014L398.581 346.342ZM497.938 321.205L441.977 377.166V375.068L497.938 319.107V321.205ZM393.134 336.945L354.756 375.323L353.964 374.018L392.364 335.617L393.134 336.945ZM365.899 289.961L281.233 374.628V372.53L365.13 288.633L365.899 289.961ZM387.688 327.548L349.154 366.081L348.363 364.774L386.917 326.221L387.688 327.548ZM497.938 306.361L441.977 362.322V360.225L497.938 304.264V306.361ZM360.452 280.564L281.233 359.784V357.687L359.683 279.236L360.452 280.564ZM382.24 318.151L343.554 356.838L342.763 355.531L381.471 316.823L382.24 318.151ZM497.938 291.518L441.977 347.479V345.381L497.938 289.42V291.518ZM355.006 271.167L281.233 344.94V342.843L354.235 269.84L355.006 271.167ZM497.938 276.674L441.977 332.635V330.537L497.938 274.576V276.674ZM281.233 330.097V327.999L345.489 263.743H347.587L281.233 330.097ZM441.977 317.791V315.693L493.927 263.743H496.024L441.977 317.791ZM281.233 315.253V313.155L330.646 263.743H332.743L281.233 315.253ZM441.977 302.947V300.85L479.083 263.743H481.181L441.977 302.947ZM281.233 300.409V298.312L315.802 263.743H317.899L281.233 300.409ZM441.977 288.104V286.006L464.239 263.743H466.337L441.977 288.104ZM281.233 285.565V283.468L300.958 263.743H303.056L281.233 285.565ZM441.977 273.26V271.162L449.396 263.743H451.493L441.977 273.26ZM281.233 270.722V268.624L286.114 263.743H288.212L281.233 270.722Z" fill="#ffffff" fill-opacity="0.9" style="fill:#ffffff;fill-opacity:0.9;"/>
<path d="M351.566 262.243L440.477 415.626V262.243H499.438V516.296H438.43L339.273 352.669V516.296H279.733V262.243H351.566ZM282.733 513.296H336.273V347.299L339.056 346.522L440.12 513.296H496.438V265.243H443.477V421.206L440.679 421.958L349.838 265.243H282.733V513.296Z" fill="#ffffff" style="fill:#ffffff;fill-opacity:1;"/>
<defs>
<linearGradient id="paint0_linear_2_322" x1="214.965" y1="389.379" x2="10.1211" y2="389.379" gradientUnits="userSpaceOnUse">
<stop stop-color="#ffffff" stop-opacity="0.3" style="stop-color:#ffffff;stop-opacity:0.3;"/>
<stop offset="1" style="stop-color:#ffffff;stop-opacity:1;"/>
</linearGradient>
<linearGradient id="paint1_linear_2_322" x1="389.379" y1="564.535" x2="389.379" y2="769.379" gradientUnits="userSpaceOnUse">
<stop stop-color="#ffffff" stop-opacity="0.3" style="stop-color:#ffffff;stop-opacity:0.3;"/>
<stop offset="1" style="stop-color:#ffffff;stop-opacity:1;"/>
</linearGradient>
<linearGradient id="paint2_linear_2_322" x1="564.535" y1="389.379" x2="769.379" y2="389.379" gradientUnits="userSpaceOnUse">
<stop stop-color="#ffffff" stop-opacity="0.3" style="stop-color:#ffffff;stop-opacity:0.3;"/>
<stop offset="1" style="stop-color:#ffffff;stop-opacity:1;"/>
</linearGradient>
<linearGradient id="paint3_linear_2_322" x1="389.379" y1="214.965" x2="389.379" y2="10.1211" gradientUnits="userSpaceOnUse">
<stop stop-color="#ffffff" stop-opacity="0.3" style="stop-color:#ffffff;stop-opacity:0.3;"/>
<stop offset="1" style="stop-color:#ffffff;stop-opacity:1;"/>
</linearGradient>
<linearGradient id="paint4_linear_2_322" x1="263.949" y1="277.309" x2="163.012" y2="176.371" gradientUnits="userSpaceOnUse">
<stop stop-color="#ffffff" stop-opacity="0.3" style="stop-color:#ffffff;stop-opacity:0.3;"/>
<stop offset="1" style="stop-color:#ffffff;stop-opacity:1;"/>
</linearGradient>
<linearGradient id="paint5_linear_2_322" x1="263.949" y1="502.191" x2="163.012" y2="603.129" gradientUnits="userSpaceOnUse">
<stop stop-color="#ffffff" stop-opacity="0.3" style="stop-color:#ffffff;stop-opacity:0.3;"/>
<stop offset="1" style="stop-color:#ffffff;stop-opacity:1;"/>
</linearGradient>
<linearGradient id="paint6_linear_2_322" x1="514.808" y1="277.309" x2="615.746" y2="176.371" gradientUnits="userSpaceOnUse">
<stop stop-color="#ffffff" stop-opacity="0.3" style="stop-color:#ffffff;stop-opacity:0.3;"/>
<stop offset="1" style="stop-color:#ffffff;stop-opacity:1;"/>
</linearGradient>
<linearGradient id="paint7_linear_2_322" x1="514.808" y1="502.191" x2="615.746" y2="603.129" gradientUnits="userSpaceOnUse">
<stop stop-color="#ffffff" stop-opacity="0.3" style="stop-color:#ffffff;stop-opacity:0.3;"/>
<stop offset="1" style="stop-color:#ffffff;stop-opacity:1;"/>
</linearGradient>
<linearGradient id="paint8_linear_2_322" x1="263.949" y1="277.309" x2="163.012" y2="176.371" gradientUnits="userSpaceOnUse">
<stop stop-color="#ffffff" stop-opacity="0.3" style="stop-color:#ffffff;stop-opacity:0.3;"/>
<stop offset="1" style="stop-color:#ffffff;stop-opacity:1;"/>
</linearGradient>
<linearGradient id="paint9_linear_2_322" x1="514.808" y1="277.309" x2="615.746" y2="176.371" gradientUnits="userSpaceOnUse">
<stop stop-color="#ffffff" stop-opacity="0.3" style="stop-color:#ffffff;stop-opacity:0.3;"/>
<stop offset="1" style="stop-color:#ffffff;stop-opacity:1;"/>
</linearGradient>
</defs>
</svg>

